<?xml version="1.0" encoding="UTF-8"?>
<svg xmlns="http://www.w3.org/2000/svg" xmlns:xlink="http://www.w3.org/1999/xlink" width="13px" height="15px" viewBox="0 0 13 14" version="1.1">
<g id="surface1">
<path style=" stroke:none;fill-rule:nonzero;fill:#ffffff;fill-opacity:1;" d="M 4.410156 1.75 L 8.589844 1.75 L 8.589844 0.65625 C 8.589844 0.292969 8.898438 0 9.285156 0 C 9.671875 0 9.980469 0.292969 9.980469 0.65625 L 9.980469 1.75 L 11.144531 1.75 C 12.167969 1.75 13 2.535156 13 3.5 L 13 12.25 C 13 13.214844 12.167969 14 11.144531 14 L 1.855469 14 C 0.832031 14 0 13.214844 0 12.25 L 0 3.5 C 0 2.535156 0.832031 1.75 1.855469 1.75 L 3.019531 1.75 L 3.019531 0.65625 C 3.019531 0.292969 3.328125 0 3.714844 0 C 4.101562 0 4.410156 0.292969 4.410156 0.65625 Z M 1.394531 6.78125 L 3.714844 6.78125 L 3.714844 5.25 L 1.394531 5.25 Z M 1.394531 8.09375 L 1.394531 9.84375 L 3.714844 9.84375 L 3.714844 8.09375 Z M 5.105469 8.09375 L 5.105469 9.84375 L 7.894531 9.84375 L 7.894531 8.09375 Z M 9.285156 8.09375 L 9.285156 9.84375 L 11.605469 9.84375 L 11.605469 8.09375 Z M 11.605469 5.25 L 9.285156 5.25 L 9.285156 6.78125 L 11.605469 6.78125 Z M 11.605469 11.15625 L 9.285156 11.15625 L 9.285156 12.6875 L 11.144531 12.6875 C 11.398438 12.6875 11.605469 12.492188 11.605469 12.25 Z M 7.894531 11.15625 L 5.105469 11.15625 L 5.105469 12.6875 L 7.894531 12.6875 Z M 3.714844 11.15625 L 1.394531 11.15625 L 1.394531 12.25 C 1.394531 12.492188 1.601562 12.6875 1.855469 12.6875 L 3.714844 12.6875 Z M 7.894531 5.25 L 5.105469 5.25 L 5.105469 6.78125 L 7.894531 6.78125 Z M 7.894531 5.25 "/>
</g>
</svg>
